<svg id="katman_1" data-name="katman 1" xmlns="http://www.w3.org/2000/svg" viewBox="0 0 911.58 141.6"><path d="M279.58,378.5H396.8v39.82h23.3V392.7q0-19.43-6.89-26.46t-26.06-7H289.22q-19.43,0-26.32,7.1T256,392.7v25.62h23.58Z" transform="translate(-256 -359.21)"/><path d="M396.8,481.12H279.58V440H256v27.29q0,19.29,6.9,26.39t26.32,7.1h97.93q19.16,0,26.06-7t6.89-26.52V440H396.8Z" transform="translate(-256 -359.21)"/><polygon points="193.97 131.96 193.97 141.6 336.64 141.6 336.64 121.91 229.87 121.91 268.39 80.83 241.57 80.83 193.97 131.96"/><polygon points="336.64 8.04 336.64 0 203.08 0 203.08 19.29 298.86 19.29 261.79 59.11 288.75 59.11 336.64 8.04"/><polygon points="494.44 141.6 533.96 141.6 440.2 80.83 404.11 80.83 494.44 141.6"/><rect x="376.15" y="80.83" width="23.71" height="60.78"/><rect x="376.15" width="23.71" height="59.11"/><polygon points="522.7 0 488.14 0 402.15 59.11 433.22 59.11 522.7 0"/><path d="M820.76,378.5H938v39.82h23.31V392.7q0-19.43-6.9-26.46t-26.06-7H830.4q-19.42,0-26.32,7.1t-6.9,26.39v25.62h23.58Z" transform="translate(-256 -359.21)"/><path d="M938,481.12H820.76V440H797.18v27.29q0,19.29,6.9,26.39t26.32,7.1h97.93q19.15,0,26.06-7t6.9-26.52V440H938Z" transform="translate(-256 -359.21)"/><polygon points="872.06 141.6 911.58 141.6 817.83 80.83 781.73 80.83 872.06 141.6"/><polygon points="900.33 0 865.77 0 779.77 59.11 810.84 59.11 900.33 0"/><rect x="753.77" y="80.83" width="23.71" height="60.78"/><rect x="753.77" width="23.71" height="59.11"/></svg>